<svg viewBox="34.5 31.5 8.5 6.5" xmlns="http://www.w3.org/2000/svg">
  <path 
    fill="#62348210" 
    stroke="#14b8a640" 
    stroke-width="0.02"
    transform="scale(1.2,-1.05) translate(-6.3,-68.3)"
    d="M36.33 36.96 L36.72 36.78 L37.02 36.67 L37.42 36.66 L38.26 36.90 L38.86 36.69 L39.55 36.72 L40.43 36.93 L40.80 37.15 L41.50 37.07 L42.02 37.22 L42.22 37.34 L42.39 37.16 L41.86 36.61 L41.44 36.52 L41.25 36.34 L41.24 35.98 L41.39 35.79 L41.34 35.55 L41.27 35.41 L41.22 35.02 L41.19 34.68 L41.00 34.44 L40.64 34.28 L36.78 32.29 L36.14 32.54 L35.82 32.74 L35.85 33.21 L35.82 33.35 L35.95 33.68 L36.31 33.92 L36.66 34.20 L36.40 34.51 L36.07 34.63 L35.87 34.78 L35.89 35.30 L35.85 35.96 L35.75 36.32 L36.32 36.92 Z"
  />
</svg>